# xmcd CD database file
#
# Track frame offsets:
#	183
#	26570
#	50133
#	61120
#	77070
#	114133
#	128908
#	155133
#	170433
#	191783
#	203208
#	231258
#
# Disc length: 3479 seconds
#
# Revision: 0
# Processed by: cddbd v1.5.2PL0 Copyright (c) Steve Scherf et al.
# Submitted via: CDex 1.79
#
DISCID=a30d950c
DTITLE=Stan Getz - Compact Jazz
DYEAR=1987
DGENRE=Jazz
TTITLE0=Desafinado
TTITLE1=Corcovado (Quiet Nights of Quiet Stars)
TTITLE2=Moonlight in Vermont
TTITLE3=Jazz Samba (So Danco Samba)
TTITLE4=Summertime
TTITLE5=Samba De Uma Nota So (One Note Samba)
TTITLE6=Manha De Carnaval (Morning of Carnival)
TTITLE7=How Insensitive
TTITLE8=O Grande Amor
TTITLE9=O Pato (The Duck)
TTITLE10=Here's That Rainy Day
TTITLE11=The Girl from Ipanema [feat. Antonio Carlos Jobim]
EXTD=YEAR: 1987
EXTT0=
EXTT1=
EXTT2=
EXTT3=
EXTT4=
EXTT5=
EXTT6=
EXTT7=
EXTT8=
EXTT9=
EXTT10=
EXTT11=
PLAYORDER=
